<mxfile host="65bd71144e">
    <diagram id="3A0USOAVDXHrIUA4B3Xb" name="Page-1">
        <mxGraphModel dx="1236" dy="608" grid="1" gridSize="10" guides="1" tooltips="1" connect="1" arrows="1" fold="1" page="1" pageScale="1" pageWidth="850" pageHeight="1100" math="0" shadow="0">
            <root>
                <mxCell id="0"/>
                <mxCell id="1" parent="0"/>
                <mxCell id="agV3x1X6RGqBZTGGjPY_-20" value="" style="endArrow=none;dashed=1;html=1;rounded=0;entryX=0.5;entryY=1;entryDx=0;entryDy=0;" parent="1" target="agV3x1X6RGqBZTGGjPY_-5" edge="1">
                    <mxGeometry width="50" height="50" relative="1" as="geometry">
                        <mxPoint x="550" y="920" as="sourcePoint"/>
                        <mxPoint x="540" y="200" as="targetPoint"/>
                    </mxGeometry>
                </mxCell>
                <mxCell id="agV3x1X6RGqBZTGGjPY_-115" value="" style="rounded=1;whiteSpace=wrap;html=1;" parent="1" vertex="1">
                    <mxGeometry x="540" y="280" width="20" height="150" as="geometry"/>
                </mxCell>
                <mxCell id="agV3x1X6RGqBZTGGjPY_-19" value="" style="endArrow=none;dashed=1;html=1;rounded=0;entryX=0.5;entryY=1;entryDx=0;entryDy=0;" parent="1" target="agV3x1X6RGqBZTGGjPY_-4" edge="1">
                    <mxGeometry width="50" height="50" relative="1" as="geometry">
                        <mxPoint x="730" y="920" as="sourcePoint"/>
                        <mxPoint x="730" y="170" as="targetPoint"/>
                    </mxGeometry>
                </mxCell>
                <mxCell id="agV3x1X6RGqBZTGGjPY_-114" value="" style="rounded=1;whiteSpace=wrap;html=1;" parent="1" vertex="1">
                    <mxGeometry x="720" y="160" width="20" height="680" as="geometry"/>
                </mxCell>
                <mxCell id="agV3x1X6RGqBZTGGjPY_-18" value="" style="endArrow=none;dashed=1;html=1;rounded=0;entryX=0.5;entryY=1;entryDx=0;entryDy=0;startArrow=none;" parent="1" target="agV3x1X6RGqBZTGGjPY_-3" edge="1">
                    <mxGeometry width="50" height="50" relative="1" as="geometry">
                        <mxPoint x="350" y="920" as="sourcePoint"/>
                        <mxPoint x="350" y="190" as="targetPoint"/>
                    </mxGeometry>
                </mxCell>
                <mxCell id="agV3x1X6RGqBZTGGjPY_-113" value="" style="rounded=1;whiteSpace=wrap;html=1;" parent="1" vertex="1">
                    <mxGeometry x="340" y="230" width="20" height="220" as="geometry"/>
                </mxCell>
                <mxCell id="agV3x1X6RGqBZTGGjPY_-7" value="" style="endArrow=none;dashed=1;html=1;rounded=0;entryX=0.5;entryY=1;entryDx=0;entryDy=0;" parent="1" target="agV3x1X6RGqBZTGGjPY_-2" edge="1">
                    <mxGeometry width="50" height="50" relative="1" as="geometry">
                        <mxPoint x="180" y="920" as="sourcePoint"/>
                        <mxPoint x="200" y="140" as="targetPoint"/>
                    </mxGeometry>
                </mxCell>
                <mxCell id="agV3x1X6RGqBZTGGjPY_-111" value="" style="rounded=1;whiteSpace=wrap;html=1;" parent="1" vertex="1">
                    <mxGeometry x="170" y="140" width="20" height="730" as="geometry"/>
                </mxCell>
                <mxCell id="11" value="" style="edgeStyle=none;html=1;" edge="1" parent="1" source="agV3x1X6RGqBZTGGjPY_-1" target="agV3x1X6RGqBZTGGjPY_-12">
                    <mxGeometry relative="1" as="geometry"/>
                </mxCell>
                <mxCell id="12" value="" style="edgeStyle=none;html=1;" edge="1" parent="1" source="agV3x1X6RGqBZTGGjPY_-1" target="agV3x1X6RGqBZTGGjPY_-12">
                    <mxGeometry relative="1" as="geometry"/>
                </mxCell>
                <mxCell id="agV3x1X6RGqBZTGGjPY_-1" value="GETer" style="shape=umlActor;verticalLabelPosition=bottom;verticalAlign=top;html=1;outlineConnect=0;labelBackgroundColor=none;fontSize=14;strokeWidth=2;" parent="1" vertex="1">
                    <mxGeometry x="10" y="10" width="45" height="90" as="geometry"/>
                </mxCell>
                <mxCell id="agV3x1X6RGqBZTGGjPY_-2" value="API" style="rounded=1;whiteSpace=wrap;html=1;" parent="1" vertex="1">
                    <mxGeometry x="120" y="40" width="120" height="60" as="geometry"/>
                </mxCell>
                <mxCell id="agV3x1X6RGqBZTGGjPY_-3" value="GETRequest" style="rounded=1;whiteSpace=wrap;html=1;" parent="1" vertex="1">
                    <mxGeometry x="290" y="40" width="120" height="60" as="geometry"/>
                </mxCell>
                <mxCell id="agV3x1X6RGqBZTGGjPY_-4" value="Catalogue" style="rounded=1;whiteSpace=wrap;html=1;" parent="1" vertex="1">
                    <mxGeometry x="670" y="40" width="120" height="60" as="geometry"/>
                </mxCell>
                <mxCell id="agV3x1X6RGqBZTGGjPY_-5" value="DataSource" style="rounded=1;whiteSpace=wrap;html=1;" parent="1" vertex="1">
                    <mxGeometry x="490" y="40" width="120" height="60" as="geometry"/>
                </mxCell>
                <mxCell id="agV3x1X6RGqBZTGGjPY_-6" value="" style="endArrow=none;dashed=1;html=1;rounded=0;" parent="1" edge="1">
                    <mxGeometry width="50" height="50" relative="1" as="geometry">
                        <mxPoint x="20" y="920" as="sourcePoint"/>
                        <mxPoint x="30" y="130" as="targetPoint"/>
                    </mxGeometry>
                </mxCell>
                <mxCell id="agV3x1X6RGqBZTGGjPY_-11" value="" style="endArrow=classic;html=1;rounded=0;" parent="1" edge="1">
                    <mxGeometry width="50" height="50" relative="1" as="geometry">
                        <mxPoint x="30" y="150" as="sourcePoint"/>
                        <mxPoint x="180" y="150" as="targetPoint"/>
                    </mxGeometry>
                </mxCell>
                <mxCell id="agV3x1X6RGqBZTGGjPY_-12" value="request JSON" style="text;html=1;strokeColor=none;fillColor=none;align=center;verticalAlign=middle;whiteSpace=wrap;rounded=0;" parent="1" vertex="1">
                    <mxGeometry x="70" y="120" width="60" height="30" as="geometry"/>
                </mxCell>
                <mxCell id="agV3x1X6RGqBZTGGjPY_-21" value="" style="endArrow=classic;html=1;rounded=0;entryX=0.006;entryY=0.08;entryDx=0;entryDy=0;entryPerimeter=0;" parent="1" target="agV3x1X6RGqBZTGGjPY_-113" edge="1">
                    <mxGeometry width="50" height="50" relative="1" as="geometry">
                        <mxPoint x="191" y="248" as="sourcePoint"/>
                        <mxPoint x="320" y="220" as="targetPoint"/>
                    </mxGeometry>
                </mxCell>
                <mxCell id="agV3x1X6RGqBZTGGjPY_-39" value="" style="endArrow=classic;html=1;rounded=0;" parent="1" edge="1">
                    <mxGeometry width="50" height="50" relative="1" as="geometry">
                        <mxPoint x="340" y="430" as="sourcePoint"/>
                        <mxPoint x="180" y="430" as="targetPoint"/>
                    </mxGeometry>
                </mxCell>
                <mxCell id="agV3x1X6RGqBZTGGjPY_-40" value="response JSON" style="text;html=1;strokeColor=none;fillColor=none;align=center;verticalAlign=middle;whiteSpace=wrap;rounded=0;" parent="1" vertex="1">
                    <mxGeometry x="220" y="400" width="80" height="30" as="geometry"/>
                </mxCell>
                <mxCell id="agV3x1X6RGqBZTGGjPY_-41" value="" style="endArrow=classic;html=1;rounded=0;" parent="1" edge="1">
                    <mxGeometry width="50" height="50" relative="1" as="geometry">
                        <mxPoint x="180" y="440" as="sourcePoint"/>
                        <mxPoint x="30" y="440" as="targetPoint"/>
                    </mxGeometry>
                </mxCell>
                <mxCell id="qu7Ryfk8MuaqvVRfCXjr-5" value="" style="endArrow=classic;html=1;rounded=0;exitX=1.026;exitY=0.14;exitDx=0;exitDy=0;exitPerimeter=0;" parent="1" source="agV3x1X6RGqBZTGGjPY_-113" edge="1">
                    <mxGeometry width="50" height="50" relative="1" as="geometry">
                        <mxPoint x="360" y="280" as="sourcePoint"/>
                        <mxPoint x="720" y="259" as="targetPoint"/>
                    </mxGeometry>
                </mxCell>
                <mxCell id="qu7Ryfk8MuaqvVRfCXjr-6" value="" style="endArrow=classic;html=1;rounded=0;entryX=-0.114;entryY=0.331;entryDx=0;entryDy=0;entryPerimeter=0;" parent="1" edge="1" target="agV3x1X6RGqBZTGGjPY_-113">
                    <mxGeometry width="50" height="50" relative="1" as="geometry">
                        <mxPoint x="190" y="301" as="sourcePoint"/>
                        <mxPoint x="330" y="300" as="targetPoint"/>
                    </mxGeometry>
                </mxCell>
                <UserObject label="process request" placeholders="1" name="Variable" id="qu7Ryfk8MuaqvVRfCXjr-7">
                    <mxCell style="text;html=1;strokeColor=none;fillColor=none;align=center;verticalAlign=middle;whiteSpace=wrap;overflow=hidden;" parent="1" vertex="1">
                        <mxGeometry x="220" y="280" width="80" height="20" as="geometry"/>
                    </mxCell>
                </UserObject>
                <mxCell id="qu7Ryfk8MuaqvVRfCXjr-8" value="response JSON" style="text;html=1;strokeColor=none;fillColor=none;align=center;verticalAlign=middle;whiteSpace=wrap;rounded=0;" parent="1" vertex="1">
                    <mxGeometry x="60" y="410" width="80" height="30" as="geometry"/>
                </mxCell>
                <mxCell id="3" value="" style="endArrow=classic;html=1;exitX=-0.154;exitY=0.192;exitDx=0;exitDy=0;exitPerimeter=0;" edge="1" parent="1" source="agV3x1X6RGqBZTGGjPY_-114">
                    <mxGeometry width="50" height="50" relative="1" as="geometry">
                        <mxPoint x="620" y="340" as="sourcePoint"/>
                        <mxPoint x="560" y="291" as="targetPoint"/>
                    </mxGeometry>
                </mxCell>
                <mxCell id="4" value="lookUpDataSource" style="text;html=1;strokeColor=none;fillColor=none;align=center;verticalAlign=middle;whiteSpace=wrap;rounded=0;" vertex="1" parent="1">
                    <mxGeometry x="620" y="310" width="40" height="20" as="geometry"/>
                </mxCell>
                <mxCell id="5" value="getDataSource" style="text;html=1;strokeColor=none;fillColor=none;align=center;verticalAlign=middle;whiteSpace=wrap;rounded=0;" vertex="1" parent="1">
                    <mxGeometry x="530" y="240" width="40" height="20" as="geometry"/>
                </mxCell>
                <mxCell id="6" value="" style="endArrow=classic;html=1;exitX=0;exitY=0.25;exitDx=0;exitDy=0;entryX=1.086;entryY=0.455;entryDx=0;entryDy=0;entryPerimeter=0;" edge="1" parent="1" source="agV3x1X6RGqBZTGGjPY_-114" target="agV3x1X6RGqBZTGGjPY_-113">
                    <mxGeometry width="50" height="50" relative="1" as="geometry">
                        <mxPoint x="580" y="390" as="sourcePoint"/>
                        <mxPoint x="630" y="340" as="targetPoint"/>
                    </mxGeometry>
                </mxCell>
                <mxCell id="7" value="" style="endArrow=classic;html=1;exitX=1.146;exitY=0.642;exitDx=0;exitDy=0;exitPerimeter=0;entryX=0.026;entryY=0.6;entryDx=0;entryDy=0;entryPerimeter=0;" edge="1" parent="1" source="agV3x1X6RGqBZTGGjPY_-113" target="agV3x1X6RGqBZTGGjPY_-115">
                    <mxGeometry width="50" height="50" relative="1" as="geometry">
                        <mxPoint x="370" y="370" as="sourcePoint"/>
                        <mxPoint x="510" y="380" as="targetPoint"/>
                    </mxGeometry>
                </mxCell>
                <mxCell id="8" value="retrieveData" style="text;html=1;strokeColor=none;fillColor=none;align=center;verticalAlign=middle;whiteSpace=wrap;rounded=0;" vertex="1" parent="1">
                    <mxGeometry x="430" y="350" width="40" height="20" as="geometry"/>
                </mxCell>
                <mxCell id="9" value="" style="endArrow=classic;html=1;entryX=1.026;entryY=0.8;entryDx=0;entryDy=0;entryPerimeter=0;" edge="1" parent="1" target="agV3x1X6RGqBZTGGjPY_-113">
                    <mxGeometry width="50" height="50" relative="1" as="geometry">
                        <mxPoint x="538" y="406" as="sourcePoint"/>
                        <mxPoint x="480" y="400" as="targetPoint"/>
                    </mxGeometry>
                </mxCell>
                <mxCell id="10" value="getResponse" style="text;html=1;strokeColor=none;fillColor=none;align=center;verticalAlign=middle;whiteSpace=wrap;rounded=0;" vertex="1" parent="1">
                    <mxGeometry x="430" y="380" width="40" height="20" as="geometry"/>
                </mxCell>
            </root>
        </mxGraphModel>
    </diagram>
</mxfile>